<svg width="36" height="41" viewBox="0 0 36 41" fill="none" xmlns="http://www.w3.org/2000/svg">
<path d="M31.7357 25.0337H4.26431C3.49024 25.0337 2.8627 25.7301 2.8627 26.5891V39.136H33.1373V26.5891C33.1373 25.7301 32.5098 25.0337 31.7357 25.0337Z" fill="#DA4A54"/>
<path d="M29.8319 25.0337H6.16818V16.5567C6.16818 15.6977 6.79572 15.0013 7.56979 15.0013H28.4303C29.2044 15.0013 29.8319 15.6977 29.8319 16.5567V25.0337H29.8319Z" fill="#DA4A54"/>
<path d="M31.7357 25.0337H4.26431C3.49024 25.0337 2.8627 25.7301 2.8627 26.5891V30.011C5.38551 30.011 5.38551 31.8775 7.90833 31.8775C10.4311 31.8775 10.4311 30.011 12.9537 30.011C15.4766 30.011 15.4766 31.8775 17.9994 31.8775C20.5222 31.8775 20.5223 30.011 23.0452 30.011C25.5682 30.011 25.5682 31.8775 28.0913 31.8775C30.6143 31.8775 30.6143 30.011 33.1373 30.011V26.5891C33.1373 25.7301 32.5098 25.0337 31.7357 25.0337Z" fill="#F4DAAB"/>
<path d="M29.8319 16.5566C29.8319 15.6976 29.2043 15.0012 28.4302 15.0012H7.56979C6.79572 15.0012 6.16818 15.6976 6.16818 16.5566V19.5326C6.6101 19.7721 7.14278 19.9444 7.90835 19.9444C10.4311 19.9444 10.4311 18.0779 12.9538 18.0779C15.4766 18.0779 15.4766 19.9444 17.9994 19.9444C20.5223 19.9444 20.5223 18.0779 23.0452 18.0779C25.5682 18.0779 25.5682 19.9444 28.0913 19.9444C28.8571 19.9444 29.3899 19.7719 29.8319 19.5324V16.5566V16.5566Z" fill="#F4DAAB"/>
<path d="M12.4636 25.8137C12.4179 25.8137 12.3715 25.8091 12.3265 25.7989C12.2815 25.7888 12.2372 25.7739 12.195 25.7544C12.1521 25.7349 12.1113 25.7107 12.0734 25.6826C12.0347 25.6538 11.9988 25.621 11.9665 25.5851C11.9341 25.5492 11.9046 25.5094 11.8793 25.4665C11.854 25.4244 11.8322 25.3791 11.8146 25.3323C11.797 25.2847 11.7837 25.2355 11.7745 25.1864C11.7654 25.1357 11.7605 25.0842 11.7605 25.0335C11.7605 24.9827 11.7654 24.9312 11.7745 24.8813C11.7837 24.8314 11.797 24.7822 11.8146 24.7354C11.8322 24.6878 11.854 24.6425 11.8793 24.6004C11.9046 24.5575 11.9341 24.5177 11.9665 24.4818C11.9988 24.4459 12.0347 24.4131 12.0734 24.3851C12.1113 24.357 12.1521 24.3328 12.195 24.3133C12.2372 24.2938 12.2815 24.2789 12.3265 24.2688C12.555 24.2173 12.7976 24.3008 12.9607 24.4818C12.993 24.5177 13.0226 24.5575 13.0486 24.6004C13.0739 24.6425 13.0957 24.6878 13.1133 24.7354C13.1309 24.7822 13.1442 24.8314 13.1534 24.8813C13.1625 24.9312 13.1667 24.9827 13.1667 25.0335C13.1667 25.0842 13.1625 25.1357 13.1534 25.1864C13.1442 25.2355 13.1309 25.2847 13.1133 25.3323C13.0957 25.3791 13.0739 25.4244 13.0486 25.4665C13.0226 25.5094 12.993 25.5492 12.9607 25.5851C12.8299 25.7302 12.6485 25.8137 12.4636 25.8137Z" fill="black"/>
<path d="M11.9529 10.5748C11.1126 11.5073 9.75019 11.5073 8.90982 10.5748C8.25781 9.85125 8.0937 8.74709 8.50186 7.82948L10.4314 3.49146L12.3609 7.82948C12.769 8.74709 12.6049 9.85125 11.9529 10.5748Z" fill="#D82E3D"/>
<path d="M19.5216 9.48602C18.6813 10.4185 17.3189 10.4185 16.4785 9.48602C15.8265 8.76247 15.6624 7.6583 16.0706 6.7407L18.0001 2.40259L19.9296 6.74062C20.3377 7.65822 20.1736 8.76239 19.5216 9.48602Z" fill="#D82E3D"/>
<path d="M27.0901 10.5748C26.2498 11.5073 24.8875 11.5073 24.0471 10.5748C23.3951 9.85125 23.231 8.74709 23.6391 7.82948L25.5687 3.49146L27.4982 7.82948C27.9063 8.74709 27.7422 9.85125 27.0901 10.5748Z" fill="#D82E3D"/>
<path d="M35.2969 38.3564H33.8404V30.0118V26.5899C33.8404 25.302 32.8963 24.2543 31.7357 24.2543H30.535V19.5334V16.5576C30.535 15.2697 29.5908 14.2219 28.4302 14.2219H26.2718V11.9565C26.7541 11.8213 27.2107 11.5453 27.5873 11.1274C28.4529 10.1669 28.6705 8.70317 28.1287 7.48492L26.1991 3.14697C26.0807 2.88066 25.8363 2.71205 25.5686 2.71205C25.301 2.71205 25.0566 2.88066 24.9382 3.14697L23.0086 7.485C22.4668 8.70309 22.6844 10.1669 23.55 11.1275C23.9266 11.5454 24.3832 11.8214 24.8655 11.9565V14.222H18.7031V10.8677C19.1855 10.7325 19.6421 10.4565 20.0187 10.0386C20.8843 9.07809 21.1018 7.61437 20.56 6.39612L18.6305 2.0581C18.512 1.79179 18.2676 1.62317 18 1.62317C17.7324 1.62317 17.488 1.79179 17.3695 2.0581L15.44 6.3962C14.8982 7.61437 15.1158 9.07809 15.9813 10.0386C16.3579 10.4565 16.8145 10.7325 17.2969 10.8677V14.2219H11.1345V11.9589C11.6281 11.8208 12.0807 11.5372 12.45 11.1274C13.3156 10.1669 13.5332 8.70309 12.9914 7.48492L11.0618 3.14689C10.9434 2.88059 10.699 2.71197 10.4314 2.71197C10.1637 2.71197 9.91934 2.88059 9.80086 3.14689L7.87134 7.485C7.32959 8.70309 7.54713 10.1669 8.41268 11.1275C8.78196 11.5373 9.23463 11.8208 9.72823 11.959V14.222H7.56977C6.4092 14.222 5.46504 15.2697 5.46504 16.5577V19.5337V24.2543H4.26431C3.10373 24.2543 2.15958 25.3021 2.15958 26.59V30.0118V38.3565H0.703125C0.314789 38.3565 0 38.7058 0 39.1368C0 39.5677 0.314789 39.9171 0.703125 39.9171H2.8627H33.1373H35.2969C35.6852 39.9171 36 39.5677 36 39.1368C36 38.7058 35.6852 38.3564 35.2969 38.3564ZM24.5443 10.0239C24.1051 9.53658 23.9948 8.79384 24.2697 8.1757L25.5687 5.2552L26.8677 8.1757C27.1427 8.79384 27.0323 9.53658 26.5931 10.0239C26.4956 10.1322 26.3869 10.2204 26.2719 10.2913C25.8359 10.5598 25.3017 10.5598 24.8657 10.2913C24.7505 10.2204 24.6419 10.1322 24.5443 10.0239ZM16.9757 8.93515C16.5365 8.44779 16.4261 7.70504 16.701 7.0869L18 4.16648L19.299 7.08698C19.5739 7.70512 19.4636 8.44786 19.0244 8.93522C18.9269 9.04345 18.8182 9.1317 18.7032 9.20255C18.2673 9.47112 17.733 9.47112 17.2969 9.20255C17.1818 9.13162 17.0732 9.04345 16.9757 8.93515ZM9.40704 10.0239C8.9678 9.53658 8.85748 8.79384 9.1324 8.1757L10.4314 5.2552L11.7304 8.1757C12.0054 8.79376 11.895 9.53651 11.4558 10.0239C11.3583 10.1322 11.2496 10.2204 11.1346 10.2913C10.6987 10.5598 10.1644 10.5598 9.72837 10.2913C9.61319 10.2204 9.50456 10.1322 9.40704 10.0239ZM6.87129 16.5575C6.87129 16.1301 7.18467 15.7824 7.56977 15.7824H28.4303C28.8155 15.7824 29.1288 16.1301 29.1288 16.5575V19.0073C28.819 19.1153 28.4852 19.165 28.0913 19.165C27.0427 19.165 26.5641 18.811 25.9583 18.3628C25.284 17.8639 24.5197 17.2985 23.0453 17.2985C21.571 17.2985 20.8067 17.8639 20.1324 18.3628C19.5266 18.811 19.0481 19.165 17.9995 19.165C16.9509 19.165 16.4725 18.811 15.8667 18.3628C15.1924 17.8639 14.4282 17.2985 12.9539 17.2985C11.4796 17.2985 10.7154 17.8639 10.0411 18.3628C9.43538 18.811 8.9569 19.165 7.90847 19.165C7.51472 19.165 7.18109 19.1152 6.87136 19.0074V16.5575H6.87129V16.5575ZM32.4342 38.3564H3.56583V30.8573C4.16363 30.9793 4.54444 31.2605 4.99549 31.5942C5.66979 32.0932 6.43402 32.6585 7.9084 32.6585C9.38264 32.6585 10.1469 32.0931 10.8212 31.5942C11.4269 31.1461 11.9054 30.792 12.9538 30.792C14.0023 30.792 14.4809 31.1461 15.0866 31.5942C15.7609 32.0932 16.5251 32.6585 17.9994 32.6585C19.4738 32.6585 20.238 32.0931 20.9123 31.5942C21.5182 31.1461 21.9966 30.792 23.0452 30.792C24.0938 30.792 24.5724 31.1461 25.1782 31.5942C25.8526 32.0931 26.6168 32.6585 28.0912 32.6585C29.5656 32.6585 30.3299 32.0931 31.0043 31.5942C31.4554 31.2605 31.8363 30.9792 32.4342 30.8572V38.3564ZM32.4342 29.2788C31.4018 29.4247 30.7822 29.883 30.2242 30.2958C29.6184 30.744 29.1399 31.098 28.0912 31.098C27.0426 31.098 26.5641 30.744 25.9582 30.2958C25.2839 29.797 24.5196 29.2315 23.0452 29.2315C21.5709 29.2315 20.8066 29.797 20.1323 30.2958C19.5265 30.744 19.048 31.098 17.9994 31.098C16.9509 31.098 16.4724 30.744 15.8666 30.2958C15.1924 29.7969 14.4281 29.2315 12.9537 29.2315C11.4795 29.2315 10.7153 29.797 10.041 30.2958C9.43523 30.744 8.95676 31.098 7.90833 31.098C6.85976 31.098 6.38128 30.744 5.77554 30.2958C5.21761 29.883 4.59816 29.4247 3.56583 29.2788V26.5899C3.56583 26.1625 3.87921 25.8148 4.26431 25.8148H9.66045C10.0488 25.8148 10.3636 25.4655 10.3636 25.0345C10.3636 24.6036 10.0488 24.2543 9.66045 24.2543H6.87129V20.6157C7.19487 20.6891 7.53673 20.7257 7.9084 20.7257C9.38264 20.7257 10.1469 20.1602 10.8212 19.6614C11.4269 19.2132 11.9054 18.8592 12.9538 18.8592C14.0024 18.8592 14.4809 19.2132 15.0866 19.6614C15.7609 20.1602 16.5251 20.7257 17.9994 20.7257C19.4738 20.7257 20.238 20.1602 20.9123 19.6614C21.5182 19.2132 21.9966 18.8592 23.0452 18.8592C24.0938 18.8592 24.5724 19.2132 25.1782 19.6614C25.8526 20.1603 26.6169 20.7257 28.0912 20.7257C28.4631 20.7257 28.8051 20.689 29.1287 20.6156V24.2543H15.2669C14.8785 24.2543 14.5638 24.6036 14.5638 25.0345C14.5638 25.4655 14.8785 25.8148 15.2669 25.8148H31.7357C32.1209 25.8148 32.4342 26.1626 32.4342 26.5899V29.2788Z" fill="black"/>
<path d="M6.16855 37.3502C5.98292 37.3502 5.80152 37.2668 5.67074 37.1216C5.63839 37.0849 5.60886 37.0452 5.58355 37.003C5.55824 36.9601 5.53644 36.9148 5.51886 36.868C5.50128 36.8212 5.48792 36.7721 5.47878 36.7221C5.46964 36.6714 5.46542 36.6207 5.46542 36.57C5.46542 36.5185 5.46964 36.4677 5.47878 36.417C5.48792 36.3671 5.50128 36.3179 5.51886 36.2711C5.53644 36.2243 5.55824 36.179 5.58355 36.1361C5.60886 36.094 5.63839 36.0542 5.67074 36.0175C5.83456 35.8365 6.07714 35.7538 6.30566 35.8045C6.35066 35.8146 6.39495 35.8295 6.43714 35.849C6.47933 35.8685 6.52011 35.8927 6.55808 35.9208C6.59675 35.9496 6.63261 35.9816 6.66495 36.0175C6.698 36.0542 6.72683 36.094 6.75285 36.1361C6.77816 36.179 6.79995 36.2243 6.81753 36.2711C6.83511 36.3179 6.84847 36.3671 6.85761 36.417C6.86675 36.4677 6.87167 36.5185 6.87167 36.57C6.87167 36.6207 6.86675 36.6714 6.85761 36.7221C6.84847 36.7721 6.83511 36.8212 6.81753 36.868C6.79995 36.9148 6.77816 36.9601 6.75285 37.003C6.72683 37.0452 6.698 37.0849 6.66495 37.1216C6.63261 37.1575 6.59675 37.1895 6.55808 37.2184C6.52011 37.2465 6.47933 37.2707 6.43714 37.2902C6.39495 37.3097 6.35066 37.3245 6.30566 37.3346C6.25995 37.3448 6.21425 37.3502 6.16855 37.3502Z" fill="black"/>
<path d="M13.725 35.0172C13.6793 35.0172 13.6329 35.0118 13.5879 35.0016C13.5429 34.9915 13.4986 34.9767 13.4564 34.9572C13.4136 34.9376 13.3728 34.9135 13.3348 34.8854C13.2961 34.8565 13.2603 34.8245 13.2279 34.7886C13.1956 34.7527 13.1661 34.7121 13.1407 34.67C13.1154 34.6271 13.0936 34.5818 13.0761 34.535C13.0585 34.4882 13.0451 34.4391 13.036 34.3891C13.0268 34.3384 13.0219 34.2877 13.0219 34.2362C13.0219 34.1855 13.0268 34.1347 13.036 34.084C13.0451 34.0341 13.0585 33.9849 13.0761 33.9381C13.0936 33.8913 13.1154 33.846 13.1407 33.8031C13.1661 33.761 13.1956 33.7204 13.2279 33.6845C13.2603 33.6486 13.2961 33.6159 13.3348 33.5878C13.3728 33.5597 13.4136 33.5355 13.4564 33.516C13.4986 33.4965 13.5429 33.4817 13.5879 33.4715C13.6786 33.4512 13.7721 33.4512 13.8628 33.4715C13.9071 33.4817 13.9514 33.4965 13.9943 33.516C14.0365 33.5355 14.0773 33.5597 14.1153 33.5878C14.1539 33.6159 14.1898 33.6486 14.2221 33.6845C14.2545 33.7204 14.284 33.761 14.31 33.8031C14.3353 33.846 14.3571 33.8913 14.3747 33.9381C14.3923 33.9849 14.4057 34.0341 14.4148 34.084C14.4239 34.1347 14.4282 34.1855 14.4282 34.2362C14.4282 34.2877 14.4239 34.3384 14.4148 34.3891C14.4057 34.4391 14.3923 34.4882 14.3747 34.535C14.3571 34.5818 14.3353 34.6271 14.31 34.67C14.284 34.7121 14.2545 34.7527 14.2221 34.7886C14.1898 34.8245 14.1539 34.8565 14.1153 34.8854C14.0773 34.9135 14.0365 34.9376 13.9943 34.9572C13.9514 34.9767 13.9071 34.9915 13.8628 35.0016C13.8171 35.0118 13.7707 35.0172 13.725 35.0172Z" fill="black"/>
<path d="M21.8545 37.3501C21.8088 37.3501 21.7624 37.3447 21.7166 37.3345C21.6724 37.3244 21.6281 37.3095 21.5852 37.29C21.543 37.2705 21.5022 37.2463 21.4642 37.2183C21.4256 37.1902 21.3897 37.1574 21.3574 37.1215C21.325 37.0856 21.2955 37.045 21.2695 37.0029C21.2441 36.96 21.2224 36.9147 21.2048 36.8679C21.1872 36.8211 21.1738 36.7719 21.1647 36.722C21.1556 36.6713 21.1513 36.6206 21.1513 36.5698C21.1513 36.5183 21.1556 36.4676 21.1647 36.4169C21.1738 36.367 21.1872 36.3178 21.2048 36.271C21.2224 36.2242 21.2441 36.1789 21.2695 36.136C21.2955 36.0939 21.325 36.0541 21.3574 36.0174C21.3897 35.9815 21.4256 35.9495 21.4642 35.9207C21.5022 35.8926 21.543 35.8684 21.5852 35.8489C21.6281 35.8294 21.6724 35.8145 21.7166 35.8044C21.8074 35.7841 21.9009 35.7841 21.9916 35.8044C22.0366 35.8145 22.0809 35.8294 22.1231 35.8489C22.1659 35.8684 22.2067 35.8926 22.2447 35.9207C22.2834 35.9495 22.3192 35.9815 22.3516 36.0174C22.3839 36.0541 22.4134 36.0939 22.4388 36.136C22.4641 36.1789 22.4859 36.2242 22.5034 36.271C22.521 36.3178 22.5344 36.367 22.5435 36.4169C22.5527 36.4676 22.5576 36.5183 22.5576 36.5698C22.5576 36.6206 22.5527 36.6713 22.5435 36.722C22.5344 36.7719 22.521 36.8211 22.5034 36.8679C22.4859 36.9147 22.4641 36.96 22.4388 37.0029C22.4134 37.045 22.3839 37.0856 22.3516 37.1215C22.2208 37.2666 22.0394 37.3501 21.8545 37.3501Z" fill="black"/>
<path d="M29.8322 35.4829C29.7857 35.4829 29.74 35.4782 29.6943 35.4681C29.6493 35.4579 29.605 35.4431 29.5629 35.4236C29.5207 35.4041 29.4799 35.3799 29.4412 35.3518C29.4032 35.323 29.3674 35.291 29.3343 35.2551C29.302 35.2184 29.2732 35.1786 29.2472 35.1357C29.2218 35.0936 29.2 35.0483 29.1825 35.0015C29.1649 34.9547 29.1515 34.9055 29.1424 34.8556C29.1332 34.8049 29.129 34.7541 29.129 34.7026C29.129 34.6519 29.1332 34.6004 29.1424 34.5505C29.1515 34.5005 29.1649 34.4514 29.1825 34.4046C29.2 34.3578 29.2218 34.3117 29.2472 34.2696C29.2732 34.2275 29.302 34.1869 29.3343 34.151C29.4658 34.0059 29.6465 33.9224 29.8322 33.9224C30.0171 33.9224 30.1978 34.0059 30.3293 34.151C30.3616 34.1869 30.3911 34.2275 30.4165 34.2696C30.4418 34.3117 30.4636 34.3578 30.4811 34.4046C30.4987 34.4514 30.5121 34.5005 30.5212 34.5505C30.5304 34.6004 30.5353 34.6519 30.5353 34.7026C30.5353 34.7541 30.5304 34.8049 30.5212 34.8556C30.5121 34.9055 30.4987 34.9539 30.4811 35.0015C30.4636 35.0483 30.4418 35.0936 30.4165 35.1357C30.3911 35.1786 30.3616 35.2184 30.3293 35.2551C30.1985 35.4002 30.0171 35.4829 29.8322 35.4829Z" fill="black"/>
<path d="M22.8354 22.7294C22.7897 22.7294 22.7432 22.7239 22.6982 22.7138C22.6532 22.7036 22.609 22.6888 22.5668 22.6693C22.5239 22.6498 22.4831 22.6256 22.4451 22.5975C22.4065 22.5694 22.3706 22.5367 22.3382 22.5008C22.3059 22.4649 22.2764 22.4251 22.2511 22.3822C22.2257 22.34 22.204 22.294 22.1864 22.2472C22.1688 22.2004 22.1554 22.1512 22.1463 22.1013C22.1372 22.0513 22.1322 21.9998 22.1322 21.9491C22.1322 21.8984 22.1372 21.8469 22.1463 21.7962C22.1554 21.747 22.1688 21.6979 22.1864 21.6503C22.204 21.6035 22.2257 21.5582 22.2511 21.5161C22.2764 21.4732 22.3059 21.4334 22.3382 21.3975C22.3706 21.3608 22.4065 21.3288 22.4451 21.2999C22.4831 21.2718 22.5239 21.2477 22.5668 21.2281C22.609 21.2086 22.6532 21.1938 22.6982 21.1837C22.789 21.1634 22.8825 21.1634 22.9732 21.1837C23.0175 21.1938 23.0618 21.2086 23.1047 21.2281C23.1468 21.2477 23.1876 21.2718 23.2256 21.2999C23.2643 21.3288 23.3001 21.3608 23.3325 21.3975C23.3648 21.4334 23.3943 21.4732 23.4204 21.5161C23.4457 21.5582 23.4675 21.6035 23.485 21.6503C23.5026 21.6979 23.516 21.747 23.5251 21.7962C23.5343 21.8469 23.5385 21.8984 23.5385 21.9491C23.5385 21.9998 23.5343 22.0513 23.5251 22.1013C23.516 22.1512 23.5026 22.2004 23.485 22.2472C23.4675 22.294 23.4457 22.34 23.4204 22.3822C23.3943 22.4251 23.3648 22.4649 23.3325 22.5008C23.3001 22.5367 23.2643 22.5694 23.2256 22.5975C23.1876 22.6256 23.1468 22.6498 23.1047 22.6693C23.0618 22.6888 23.0175 22.7036 22.9732 22.7138C22.9275 22.7239 22.8811 22.7294 22.8354 22.7294Z" fill="black"/>
<path d="M13.6554 21.6666C13.609 21.6666 13.5633 21.6612 13.5176 21.651C13.4726 21.6409 13.4283 21.6261 13.3861 21.6066C13.3439 21.5871 13.3032 21.5629 13.2645 21.5348C13.2265 21.5059 13.1907 21.4739 13.1576 21.438C13.1253 21.4014 13.0964 21.3616 13.0704 21.3194C13.0451 21.2765 13.0233 21.2313 13.0057 21.1844C12.9882 21.1376 12.9748 21.0885 12.9657 21.0385C12.9565 20.9878 12.9523 20.9371 12.9523 20.8864C12.9523 20.8349 12.9565 20.7842 12.9657 20.7334C12.9748 20.6835 12.9882 20.6343 13.0057 20.5875C13.0233 20.5407 13.0451 20.4955 13.0704 20.4525C13.0964 20.4104 13.1253 20.3698 13.1576 20.3339C13.1907 20.298 13.2265 20.2653 13.2645 20.2372C13.3032 20.2091 13.3439 20.1849 13.3861 20.1654C13.4283 20.1459 13.4726 20.1311 13.5176 20.1209C13.6083 20.1006 13.7018 20.1006 13.7925 20.1209C13.8375 20.1311 13.8818 20.1459 13.924 20.1654C13.9662 20.1849 14.007 20.2091 14.0457 20.2372C14.0836 20.2653 14.1202 20.298 14.1525 20.3339C14.1849 20.3698 14.2144 20.4104 14.2397 20.4525C14.265 20.4955 14.2868 20.5407 14.3044 20.5875C14.322 20.6343 14.3353 20.6835 14.3445 20.7334C14.3536 20.7842 14.3578 20.8349 14.3578 20.8864C14.3578 20.9371 14.3536 20.9878 14.3445 21.0385C14.3353 21.0885 14.322 21.1376 14.3044 21.1844C14.2868 21.2313 14.265 21.2765 14.2397 21.3194C14.2137 21.3616 14.1849 21.4014 14.1525 21.438C14.1202 21.4739 14.0836 21.5059 14.0457 21.5348C14.007 21.5629 13.9662 21.5871 13.924 21.6066C13.8818 21.6261 13.8375 21.6409 13.7925 21.651C13.7475 21.6612 13.7011 21.6666 13.6554 21.6666Z" fill="black"/>
</svg>
