<svg width="36" height="36" viewBox="0 0 36 36" fill="none" xmlns="http://www.w3.org/2000/svg">
<g clip-path="url(#clip0)">
<path d="M28.2857 10.2857C24.2679 10.2857 19.9286 14.1776 18.0001 16.1267C16.0715 14.1776 11.7322 10.2857 7.71437 10.2857C2.88398 10.2857 9.15527e-05 13.1696 9.15527e-05 18C9.15527e-05 22.8304 2.88398 25.7143 7.71437 25.7143C11.7322 25.7143 16.0715 21.8224 18.0001 19.8733C19.9286 21.8224 24.2679 25.7143 28.2857 25.7143C33.1162 25.7143 36 22.8304 36 18C36 13.1696 33.1161 10.2857 28.2857 10.2857ZM7.7143 23.1429C4.30201 23.1429 2.57142 21.4123 2.57142 18C2.57142 14.5877 4.30201 12.8571 7.7143 12.8571C10.5429 12.8571 14.2971 16.0444 16.236 18C14.301 19.9582 10.5544 23.1429 7.7143 23.1429ZM28.2857 23.1429C25.4571 23.1429 21.7029 19.9556 19.764 18C21.6926 16.0432 25.4456 12.8571 28.2857 12.8571C31.698 12.8571 33.4286 14.5877 33.4286 18C33.4286 21.4123 31.698 23.1429 28.2857 23.1429Z" fill="#D82E3D"/>
</g>
<defs>
<clipPath id="clip0">
<rect width="36" height="36" fill="white"/>
</clipPath>
</defs>
</svg>
