<svg id="Capa_1" enable-background="new 0 0 512 512" height="512" viewBox="0 0 512 512" width="512" xmlns="http://www.w3.org/2000/svg"><path d="m241.298 247.096c-70.507-74.75-123.63 59.674-236.851 79.82-5.282.94-6.084 8.164-1.189 10.36 94.768 42.53 115.792 178.073 238.453 135.734 2.912-1.005 6.083-1.005 8.995 0 122.661 42.339 143.685-93.205 238.453-135.734 4.895-2.197 4.092-9.421-1.189-10.36-113.221-20.146-166.344-154.571-236.851-79.82-2.654 2.814-7.167 2.814-9.821 0zm-111.185 104.782c49.726-4.389 71.628-26.462 116.096-24.686 44.468-1.776 66.37 20.298 116.096 24.686.654.058.806.952.206 1.216-77.534 34.123-155.068 34.123-232.603 0-.601-.264-.449-1.159.205-1.216z" fill="#da4a54"/><path d="m264.953 234.89c34.732 19.126 72.587 60.315 123.66 81.433 16.712 6.91 19.61 29.159 5.289 40.203-50.39 38.857-79.69 101.869-132.775 119.723 113.554 31.319 136.027-97.755 228.116-139.01 4.887-2.189 3.943-9.393-1.329-10.333-105.668-18.84-158.982-137.198-222.961-92.016z" fill="#d82e3d"/><path d="m373.265 108.703s10.809-14.84 32.168-14.84c19.044 0 32.168 15.235 32.168 32.978 0 20.184-17.281 44.002-61.968 64.864-1.496.699-3.24.699-4.737 0-44.687-20.862-61.968-44.68-61.968-64.864 0-17.743 13.125-32.978 32.168-32.978 21.36 0 32.169 14.84 32.169 14.84z" fill="#da4a54"/><path d="m405.433 93.863c-5.595 0-10.458 1.023-14.601 2.526 11.911 5.038 19.433 17.024 19.433 30.452 0 18.382-14.352 39.777-50.668 59.21 3.561 1.905 7.32 3.793 11.306 5.656 1.495.699 3.233.697 4.728-.001 44.689-20.862 61.971-44.681 61.971-64.865 0-17.743-13.125-32.978-32.169-32.978z" fill="#d82e3d"/><path d="m463.611 216.103s8.129-11.161 24.195-11.161c14.323 0 24.195 11.459 24.195 24.803 0 15.083-12.831 32.864-45.96 48.482-1.538.725-3.32.725-4.858 0-33.13-15.618-45.96-33.399-45.96-48.482 0-13.345 9.871-24.803 24.195-24.803 16.064-.001 24.193 11.161 24.193 11.161z" fill="#da4a54"/><path d="m487.805 204.941c-3.29 0-6.241.473-8.864 1.217 10.006 3.283 16.436 12.818 16.436 23.586 0 14.153-11.311 30.681-40.078 45.569 1.887.977 3.843 1.947 5.878 2.909 1.539.727 3.324.729 4.864.003 33.129-15.617 45.959-33.398 45.959-48.481 0-13.344-9.871-24.803-24.195-24.803z" fill="#d82e3d"/><g fill="#eaaadd"><path d="m373.046 62.796c-4.431 0-8.022-3.592-8.022-8.022v-15.854c0-4.43 3.591-8.022 8.022-8.022s8.022 3.592 8.022 8.022v15.854c0 4.431-3.591 8.022-8.022 8.022z"/><path d="m343.307 75.143c-2.052 0-4.106-.783-5.673-2.35l-11.211-11.211c-3.133-3.132-3.133-8.212 0-11.344 3.134-3.132 8.212-3.132 11.346 0l11.211 11.211c3.133 3.132 3.133 8.212 0 11.344-1.567 1.567-3.62 2.35-5.673 2.35z"/><path d="m402.804 75.094c-2.052 0-4.106-.783-5.673-2.35-3.133-3.133-3.133-8.212 0-11.344l11.211-11.211c3.134-3.132 8.212-3.132 11.346 0 3.133 3.132 3.133 8.212 0 11.344l-11.211 11.211c-1.567 1.566-3.621 2.35-5.673 2.35z"/></g></svg>